<?xml version="1.0" encoding="UTF-8"?>
<svg id="Layer_2" data-name="Layer 2" xmlns="http://www.w3.org/2000/svg" viewBox="0 0 7.18 7.18">
  <g id="Layer_1-2" data-name="Layer 1">
    <path d="M3.81,7.18h-.45s-.09-.01-.14-.02c-.64-.07-1.22-.28-1.74-.67C.71,5.92,.23,5.16,.06,4.21,.03,4.08,.02,3.94,0,3.8c0-.14,0-.28,0-.42,.01-.09,.02-.18,.03-.28,.1-.71,.38-1.34,.86-1.88C1.47,.57,2.2,.17,3.06,.04,3.16,.03,3.26,.01,3.36,0c.15,0,.3,0,.45,0,.05,0,.09,.01,.14,.02,.64,.07,1.22,.28,1.74,.67,.77,.57,1.25,1.33,1.43,2.27,.03,.14,.04,.28,.06,.42v.42c-.01,.09-.02,.18-.03,.28-.1,.71-.38,1.33-.85,1.87-.58,.66-1.31,1.06-2.18,1.19-.1,.02-.2,.03-.3,.04Zm-.23-.94c.64,0,1.22-.21,1.71-.63,.07-.06,.12-.14,.15-.23,.07-.18,.03-.37-.03-.54-.18-.51-.62-.81-1.16-.81-.44,0-.88,0-1.32,0-.65,0-1.14,.43-1.23,1.07-.03,.2,.02,.38,.18,.51,.49,.41,1.06,.62,1.7,.63Zm1.19-3.98c0-.65-.53-1.18-1.19-1.18-.65,0-1.19,.53-1.19,1.18,0,.65,.53,1.19,1.18,1.19,.65,0,1.19-.53,1.19-1.19Z"/>
  </g>
</svg>