<?xml version="1.0" encoding="UTF-8"?>
<svg id="Layer_2" data-name="Layer 2" xmlns="http://www.w3.org/2000/svg" xmlns:xlink="http://www.w3.org/1999/xlink" viewBox="0 0 647.32 86.68">
  <defs>
    <style>
      .cls-1 {
        fill: url(#linear-gradient);
      }
    </style>
    <linearGradient id="linear-gradient" x1="152.59" y1="219.06" x2="500.39" y2="-128.74" gradientUnits="userSpaceOnUse">
      <stop offset="0" stop-color="#29a887"/>
      <stop offset="1" stop-color="#abffab"/>
    </linearGradient>
  </defs>
  <g id="Layer_1-2" data-name="Layer 1">
    <path class="cls-1" d="M24.62,32.48v31.87c-.01,2.21,.51,3.83,1.59,4.82,1.08,.99,2.87,1.48,5.41,1.48h7.74v14.03h-10.48c-14.03,0-21.05-6.82-21.05-20.45v-31.74s-7.84,0-7.84,0v-13.68H7.85V2.52H24.62V18.8h14.74v13.68h-14.74Zm87.5,23.18H63.95c.4,4.75,2.07,8.48,5,11.17,2.93,2.7,6.54,4.05,10.82,4.05,6.19,0,10.59-2.65,13.2-7.97h17.94c-1.89,6.34-5.55,11.56-10.93,15.65-5.4,4.08-12.02,6.12-19.86,6.12-6.34,0-12.03-1.42-17.06-4.23-5.04-2.81-8.96-6.8-11.77-11.94-2.81-5.16-4.22-11.1-4.22-17.83s1.39-12.81,4.17-17.96c2.77-5.16,6.66-9.12,11.66-11.89,4.99-2.77,10.73-4.16,17.24-4.16s11.87,1.34,16.82,4.03c4.96,2.7,8.8,6.53,11.54,11.48,2.74,4.95,4.09,10.65,4.09,17.06,0,2.37-.16,4.52-.48,6.42Zm-16.77-11.17c-.06-4.28-1.61-7.71-4.62-10.29-3.02-2.57-6.7-3.86-11.06-3.86-4.12,0-7.59,1.25-10.4,3.75-2.81,2.49-4.53,5.97-5.18,10.4h31.27Zm54.41-23.65c3.45-1.98,7.38-2.98,11.83-2.98v17.48h-4.4c-5.23,0-9.18,1.23-11.83,3.69-2.68,2.46-4,6.74-4,12.83v32.82h-16.65V18.8h16.66v10.23c2.14-3.5,4.94-6.22,8.39-8.2Zm48.04,0c3.45-1.98,7.38-2.98,11.83-2.98v17.48h-4.4c-5.23,0-9.18,1.23-11.83,3.69-2.68,2.46-4,6.74-4,12.83v32.82h-16.65V18.8h16.66v10.23c2.14-3.5,4.94-6.22,8.39-8.2Zm22.71,12.96c2.65-5.16,6.26-9.12,10.82-11.89,4.56-2.77,9.64-4.16,15.28-4.16,4.91,0,9.22,.99,12.9,2.97,3.69,1.98,6.64,4.47,8.86,7.49v-9.4h16.76V84.67h-16.77v-9.63c-2.14,3.09-5.1,5.65-8.86,7.68-3.76,2.02-8.1,3.03-13.02,3.03-5.55,0-10.6-1.43-15.16-4.29-4.56-2.85-8.17-6.87-10.82-12.06s-3.98-11.16-3.98-17.9,1.34-12.57,4-17.71Zm45.47,7.54c-1.58-2.88-3.72-5.11-6.42-6.65-2.69-1.55-5.59-2.32-8.68-2.32s-5.94,.76-8.56,2.26c-2.62,1.5-4.74,3.7-6.37,6.6-1.64,2.9-2.44,6.32-2.44,10.28s.81,7.43,2.43,10.4,3.76,5.26,6.43,6.85c2.65,1.58,5.49,2.37,8.5,2.37s5.99-.77,8.68-2.32c2.7-1.54,4.84-3.75,6.42-6.65,1.59-2.9,2.38-6.37,2.38-10.4s-.79-7.52-2.37-10.41Zm70.09,13.74l13.52,13.77c-.5,.25-1.25,.25-1.75,.5-1.5,.25-3,.5-4.51,.5h-1.25c-14.77,0-27.04-12.02-27.04-27.04V15.52h27.04c15.02,0,27.29,12.27,27.29,27.29,0,5.26-1.5,10.01-4.26,14.27l1,1,10.26,10.26c5.26-7.01,8.51-16.02,8.51-25.53,0-23.53-19.03-42.81-42.81-42.81h-42.56V42.81c0,23.53,19.02,42.81,42.56,42.81,4.76,0,9.51-1,13.77-2.25,1.25-.5,2.5-1,3.5-1.5,1.25-.5,2.25-1,3.51-1.75l5.26,5.51h15.27l-46.56-46.56-.75,16.02Zm122.57-35.33V85.61h-16.76v-8.32c-2.14,2.85-4.93,5.09-8.38,6.72-3.45,1.62-7.19,2.44-11.24,2.44-5.15,0-9.71-1.09-13.67-3.27-3.96-2.18-7.07-5.39-9.33-9.63-2.26-4.24-3.39-9.29-3.39-15.16V19.74h16.65V56c0,5.23,1.31,9.26,3.92,12.07,2.61,2.82,6.18,4.22,10.7,4.22s8.2-1.41,10.82-4.22c2.62-2.81,3.92-6.84,3.92-12.07V19.74h16.76Zm77.16,37.93h-48.15c.4,4.76,2.06,8.48,4.99,11.18,2.93,2.7,6.54,4.04,10.82,4.04,6.18,0,10.58-2.66,13.2-7.97h17.95c-1.9,6.34-5.55,11.55-10.94,15.64-5.39,4.08-12.01,6.12-19.86,6.12-6.34,0-12.03-1.41-17.06-4.22-5.03-2.81-8.96-6.8-11.77-11.95-2.81-5.15-4.22-11.1-4.22-17.83s1.38-12.8,4.16-17.95c2.77-5.15,6.66-9.11,11.65-11.89,4.99-2.77,10.74-4.16,17.24-4.16s11.87,1.35,16.82,4.04c4.95,2.7,8.8,6.52,11.53,11.47,2.74,4.96,4.1,10.64,4.1,17.06,0,2.38-.16,4.52-.48,6.42Zm-16.97-11.18c-.08-4.28-1.63-7.71-4.64-10.28-3.01-2.58-6.7-3.87-11.06-3.87-4.12,0-7.59,1.25-10.4,3.75-2.82,2.5-4.54,5.97-5.17,10.4h31.27Zm40.28,37.27c-4.28-1.94-7.67-4.58-10.17-7.91-2.5-3.33-3.86-7.01-4.1-11.06h16.76c.32,2.54,1.56,4.64,3.75,6.3,2.18,1.66,4.89,2.5,8.14,2.5s5.65-.63,7.43-1.9c1.78-1.27,2.68-2.89,2.68-4.87,0-2.14-1.09-3.75-3.27-4.82-2.18-1.07-5.65-2.24-10.4-3.51-4.91-1.19-8.94-2.42-12.07-3.68-3.13-1.27-5.83-3.21-8.08-5.83-2.26-2.62-3.39-6.14-3.39-10.58,0-3.64,1.05-6.97,3.15-9.99,2.1-3.01,5.11-5.39,9.04-7.13,3.92-1.74,8.54-2.61,13.85-2.61,7.85,0,14.11,1.96,18.78,5.89,4.68,3.92,7.25,9.21,7.73,15.87h-15.93c-.24-2.61-1.33-4.7-3.27-6.24-1.94-1.54-4.54-2.32-7.79-2.32-3.01,0-5.33,.56-6.96,1.66-1.63,1.11-2.44,2.66-2.44,4.64,0,2.22,1.11,3.91,3.33,5.05,2.22,1.15,5.67,2.32,10.34,3.51,4.76,1.19,8.68,2.42,11.77,3.68,3.09,1.27,5.77,3.23,8.03,5.89,2.26,2.66,3.43,6.16,3.51,10.52,0,3.8-1.05,7.21-3.15,10.23-2.1,3.01-5.11,5.37-9.04,7.07-3.92,1.7-8.5,2.56-13.73,2.56s-10.23-.97-14.51-2.91Zm73.48-50.35v31.87c0,2.22,.54,3.82,1.61,4.81,1.07,.99,2.87,1.49,5.41,1.49h7.73v14.03h-10.46c-14.03,0-21.04-6.82-21.04-20.45v-31.75h-7.85v-13.67h7.85V3.45h16.76V19.74h14.74v13.67h-14.74Z"/>
  </g>
</svg>